/* XPM */
static char * end_mill_xpm[] = {
"13 16 41 1",
" 	c None",
".	c #7C5C5C",
"+	c #7B5C5C",
"@	c #7C5D5D",
"#	c #795B5B",
"$	c #816060",
"%	c #826161",
"&	c #7E5E5E",
"*	c #7A5B5B",
"=	c #806060",
"-	c #805F5F",
";	c #816061",
">	c #464E68",
",	c #464F69",
"'	c #454E67",
")	c #444D66",
"!	c #444C65",
"~	c #5B515C",
"{	c #244875",
"]	c #244976",
"^	c #244975",
"/	c #254974",
"(	c #254975",
"_	c #6388B7",
":	c #A1ACBA",
"<	c #6489B5",
"[	c #AEBBCC",
"}	c #8CA8CA",
"|	c #4487DB",
"1	c #A5B6C9",
"2	c #4585D5",
"3	c #4885D2",
"4	c #5088CE",
"5	c #4284D7",
"6	c #9EB0C7",
"7	c #4286DC",
"8	c #82A1C8",
"9	c #B1BDCB",
"0	c #6B94C8",
"a	c #B3BECC",
"b	c #6F96C8",
"             ",
".+    @@#  +$",
".%& *=%%$--$%",
".%%%%$%%%%%%%",
".%%%%%%%%%%%%",
".%%%%%%%%%%%%",
"+%$$$;$$$$$$$",
"    >,')!~   ",
"    {]]]^    ",
"    /({(/    ",
"     _:<     ",
"     [}|     ",
"     123     ",
"     456     ",
"     789     ",
"     0ab     "};
